<svg width="895" height="154" viewBox="0 0 895 154" fill="none" xmlns="http://www.w3.org/2000/svg">
<rect y="7" width="135.571" height="146" rx="25" fill="url(#paint0_linear_18267_13293)"/>
<path fill-rule="evenodd" clip-rule="evenodd" d="M99.7856 70.8177C97.9708 72.2538 95.987 73.471 93.9908 74.4691C86.6239 78.1526 77.1942 80 67.7856 80C58.3771 80 48.9474 78.1526 41.5805 74.4691C39.5843 73.471 37.6005 72.2538 35.7856 70.8177V80C35.7856 84.23 39.1379 88.3036 45.1582 91.3137C51.1593 94.3142 59.2986 96 67.7856 96C76.2727 96 84.412 94.3142 90.4131 91.3137C96.4334 88.3036 99.7856 84.23 99.7856 80V70.8177ZM99.7856 94.8177C97.9708 96.2538 95.987 97.471 93.9908 98.4691C86.6239 102.153 77.1942 104 67.7856 104C58.3771 104 48.9474 102.153 41.5805 98.4691C39.5843 97.471 37.6005 96.2538 35.7856 94.8177V104C35.7856 112.837 50.1125 120 67.7856 120C85.4588 120 99.7856 112.837 99.7856 104V94.8177ZM99.7856 56C99.7856 47.1634 85.4588 40 67.7856 40C50.1125 40 35.7856 47.1634 35.7856 56C35.7856 60.23 39.1379 64.3036 45.1582 67.3137C51.1593 70.3142 59.2986 72 67.7856 72C76.2727 72 84.412 70.3142 90.4131 67.3137C96.4334 64.3036 99.7856 60.23 99.7856 56Z" fill="url(#paint1_linear_18267_13293)"/>
<path d="M242.616 123.664C237.709 123.664 232.995 122.896 228.472 121.36C223.949 119.824 220.003 117.627 216.632 114.768C213.261 111.867 210.851 108.432 209.4 104.464L221.88 99.792C222.605 101.84 223.992 103.675 226.04 105.296C228.131 106.875 230.605 108.112 233.464 109.008C236.365 109.904 239.416 110.352 242.616 110.352C246.029 110.352 249.229 109.797 252.216 108.688C255.245 107.579 257.677 106.043 259.512 104.08C261.389 102.117 262.328 99.8133 262.328 97.168C262.328 94.4373 261.347 92.1973 259.384 90.448C257.464 88.6987 254.989 87.312 251.96 86.288C248.973 85.264 245.859 84.496 242.616 83.984C236.344 82.96 230.712 81.4667 225.72 79.504C220.771 77.5413 216.845 74.7893 213.944 71.248C211.085 67.7067 209.656 63.0987 209.656 57.424C209.656 52.0907 211.171 47.44 214.2 43.472C217.272 39.504 221.304 36.432 226.296 34.256C231.331 32.0373 236.771 30.928 242.616 30.928C247.437 30.928 252.088 31.696 256.568 33.232C261.091 34.7253 265.059 36.9227 268.472 39.824C271.928 42.6827 274.403 46.16 275.896 50.256L263.288 54.8C262.563 52.7093 261.176 50.896 259.128 49.36C257.08 47.7813 254.605 46.544 251.704 45.648C248.845 44.752 245.816 44.304 242.616 44.304C239.203 44.2613 236.003 44.816 233.016 45.968C230.072 47.0773 227.661 48.6133 225.784 50.576C223.907 52.5387 222.968 54.8213 222.968 57.424C222.968 60.624 223.843 63.056 225.592 64.72C227.341 66.384 229.688 67.6213 232.632 68.432C235.619 69.2 238.947 69.904 242.616 70.544C248.504 71.4827 253.944 73.04 258.936 75.216C263.971 77.392 268.003 80.2933 271.032 83.92C274.104 87.504 275.64 91.92 275.64 97.168C275.64 102.459 274.104 107.109 271.032 111.12C268.003 115.088 263.971 118.181 258.936 120.4C253.944 122.576 248.504 123.664 242.616 123.664ZM302.117 154H288.805V58H302.117V67.408C304.25 64.1227 306.981 61.456 310.309 59.408C313.637 57.36 317.562 56.336 322.085 56.336C326.736 56.336 331.088 57.2107 335.141 58.96C339.237 60.7093 342.821 63.1413 345.893 66.256C348.965 69.328 351.376 72.8907 353.125 76.944C354.874 80.9973 355.749 85.3493 355.749 90C355.749 94.6507 354.874 99.024 353.125 103.12C351.376 107.216 348.965 110.821 345.893 113.936C342.821 117.008 339.237 119.419 335.141 121.168C331.088 122.917 326.736 123.792 322.085 123.792C317.562 123.792 313.637 122.768 310.309 120.72C306.981 118.629 304.25 115.963 302.117 112.72V154ZM321.957 69.2C318.245 69.2 314.981 70.1387 312.165 72.016C309.349 73.8933 307.152 76.4107 305.573 79.568C303.994 82.6827 303.205 86.16 303.205 90C303.205 93.84 303.994 97.3387 305.573 100.496C307.152 103.653 309.349 106.171 312.165 108.048C314.981 109.925 318.245 110.864 321.957 110.864C325.626 110.864 328.997 109.947 332.069 108.112C335.141 106.235 337.594 103.717 339.429 100.56C341.264 97.4027 342.181 93.8827 342.181 90C342.181 86.2027 341.264 82.7253 339.429 79.568C337.637 76.4107 335.205 73.8933 332.133 72.016C329.061 70.1387 325.669 69.2 321.957 69.2ZM394.215 123.664C388.327 123.664 382.951 122.149 378.087 119.12C373.266 116.091 369.404 112.037 366.503 106.96C363.644 101.84 362.215 96.1867 362.215 90C362.215 85.3067 363.047 80.9333 364.711 76.88C366.375 72.784 368.658 69.2 371.559 66.128C374.503 63.0133 377.916 60.5813 381.799 58.832C385.682 57.0827 389.82 56.208 394.215 56.208C400.103 56.208 405.458 57.7227 410.279 60.752C415.143 63.7813 419.004 67.856 421.863 72.976C424.764 78.096 426.215 83.7707 426.215 90C426.215 94.6507 425.383 99.0027 423.719 103.056C422.055 107.109 419.751 110.693 416.807 113.808C413.906 116.88 410.514 119.291 406.631 121.04C402.791 122.789 398.652 123.664 394.215 123.664ZM394.215 110.352C397.756 110.352 400.935 109.413 403.751 107.536C406.567 105.659 408.786 103.184 410.407 100.112C412.071 96.9973 412.903 93.6267 412.903 90C412.903 86.288 412.05 82.8747 410.343 79.76C408.679 76.6453 406.439 74.1707 403.623 72.336C400.807 70.4587 397.671 69.52 394.215 69.52C390.716 69.52 387.538 70.4587 384.679 72.336C381.863 74.2133 379.623 76.7093 377.959 79.824C376.338 82.9387 375.527 86.3307 375.527 90C375.527 93.7973 376.38 97.232 378.087 100.304C379.794 103.376 382.055 105.829 384.871 107.664C387.73 109.456 390.844 110.352 394.215 110.352ZM436.555 122V58H449.867V64.784C452.086 62.1387 454.816 60.048 458.059 58.512C461.302 56.976 464.8 56.208 468.555 56.208C470.944 56.208 473.312 56.528 475.659 57.168L470.347 70.608C468.683 69.968 467.019 69.648 465.355 69.648C462.539 69.648 459.958 70.352 457.611 71.76C455.264 73.1253 453.387 74.9813 451.979 77.328C450.571 79.6747 449.867 82.2773 449.867 85.136V122H436.555ZM518.472 71.312H505.032L504.968 122H491.656L491.72 71.312H481.544V58H491.72L491.656 37.904H504.968L505.032 58H518.472V71.312ZM548.255 123.216C544.884 123.003 541.599 122.32 538.399 121.168C535.199 120.016 532.383 118.459 529.951 116.496C527.562 114.491 525.77 112.144 524.575 109.456L535.903 104.592C536.458 105.744 537.418 106.875 538.783 107.984C540.191 109.093 541.834 110.011 543.711 110.736C545.588 111.419 547.551 111.76 549.599 111.76C551.604 111.76 553.46 111.483 555.167 110.928C556.916 110.331 558.346 109.435 559.455 108.24C560.564 107.045 561.119 105.616 561.119 103.952C561.119 102.075 560.479 100.624 559.199 99.6C557.962 98.5333 556.404 97.7227 554.527 97.168C552.65 96.6133 550.772 96.08 548.895 95.568C544.714 94.6293 540.874 93.3493 537.375 91.728C533.919 90.064 531.167 87.952 529.119 85.392C527.071 82.7893 526.047 79.6107 526.047 75.856C526.047 71.76 527.156 68.2187 529.375 65.232C531.594 62.2027 534.495 59.8773 538.079 58.256C541.706 56.6347 545.567 55.824 549.663 55.824C554.783 55.824 559.476 56.912 563.743 59.088C568.01 61.264 571.274 64.2507 573.535 68.048L562.975 74.32C562.335 73.04 561.375 71.888 560.095 70.864C558.815 69.84 557.364 69.0293 555.743 68.432C554.122 67.792 552.436 67.4293 550.687 67.344C548.511 67.2587 546.484 67.5147 544.607 68.112C542.772 68.6667 541.3 69.5627 540.191 70.8C539.082 72.0373 538.527 73.616 538.527 75.536C538.527 77.4133 539.188 78.8213 540.511 79.76C541.834 80.656 543.498 81.3813 545.503 81.936C547.551 82.4907 549.642 83.1093 551.775 83.792C555.572 84.9867 559.135 86.4587 562.463 88.208C565.791 89.9147 568.479 92.0267 570.527 94.544C572.575 97.0613 573.556 100.133 573.471 103.76C573.471 107.771 572.255 111.291 569.823 114.32C567.434 117.349 564.319 119.653 560.479 121.232C556.639 122.811 552.564 123.472 548.255 123.216Z" fill="#121212"/>
<path d="M584.43 122V32.4H614.062C620.249 32.4 626.051 33.5733 631.47 35.92C636.889 38.224 641.646 41.4453 645.742 45.584C649.838 49.68 653.038 54.4373 655.342 59.856C657.689 65.232 658.862 71.0133 658.862 77.2C658.862 83.3867 657.689 89.1893 655.342 94.608C653.038 99.984 649.838 104.741 645.742 108.88C641.646 112.976 636.889 116.197 631.47 118.544C626.051 120.848 620.249 122 614.062 122H584.43ZM597.742 108.688H614.062C618.414 108.688 622.467 107.877 626.222 106.256C630.019 104.635 633.369 102.373 636.27 99.472C639.214 96.5707 641.497 93.2213 643.118 89.424C644.739 85.6267 645.55 81.552 645.55 77.2C645.55 72.848 644.739 68.7733 643.118 64.976C641.497 61.1787 639.214 57.8293 636.27 54.928C633.369 52.0267 630.019 49.7653 626.222 48.144C622.467 46.5227 618.414 45.712 614.062 45.712H597.742V108.688ZM718.597 58H731.909V122H718.533L718.021 112.72C716.144 116.005 713.605 118.651 710.405 120.656C707.205 122.661 703.429 123.664 699.077 123.664C694.384 123.664 689.968 122.789 685.829 121.04C681.69 119.248 678.042 116.773 674.885 113.616C671.77 110.459 669.338 106.832 667.589 102.736C665.84 98.5973 664.965 94.16 664.965 89.424C664.965 84.8587 665.818 80.5707 667.525 76.56C669.232 72.5067 671.6 68.9653 674.629 65.936C677.658 62.9067 681.157 60.5387 685.125 58.832C689.136 57.0827 693.424 56.208 697.989 56.208C702.64 56.208 706.736 57.2747 710.277 59.408C713.861 61.4987 716.826 64.1867 719.173 67.472L718.597 58ZM698.757 110.8C702.512 110.8 705.797 109.883 708.613 108.048C711.429 106.171 713.605 103.653 715.141 100.496C716.72 97.3387 717.509 93.84 717.509 90C717.509 86.1173 716.72 82.5973 715.141 79.44C713.562 76.2827 711.365 73.7867 708.549 71.952C705.776 70.0747 702.512 69.136 698.757 69.136C695.045 69.136 691.653 70.0747 688.581 71.952C685.509 73.8293 683.077 76.3467 681.285 79.504C679.493 82.6613 678.597 86.16 678.597 90C678.597 93.8827 679.514 97.4027 681.349 100.56C683.226 103.675 685.68 106.171 688.709 108.048C691.781 109.883 695.13 110.8 698.757 110.8ZM763.88 123.216C760.509 123.003 757.224 122.32 754.024 121.168C750.824 120.016 748.008 118.459 745.576 116.496C743.187 114.491 741.395 112.144 740.2 109.456L751.528 104.592C752.083 105.744 753.043 106.875 754.408 107.984C755.816 109.093 757.459 110.011 759.336 110.736C761.213 111.419 763.176 111.76 765.224 111.76C767.229 111.76 769.085 111.483 770.792 110.928C772.541 110.331 773.971 109.435 775.08 108.24C776.189 107.045 776.744 105.616 776.744 103.952C776.744 102.075 776.104 100.624 774.824 99.6C773.587 98.5333 772.029 97.7227 770.152 97.168C768.275 96.6133 766.397 96.08 764.52 95.568C760.339 94.6293 756.499 93.3493 753 91.728C749.544 90.064 746.792 87.952 744.744 85.392C742.696 82.7893 741.672 79.6107 741.672 75.856C741.672 71.76 742.781 68.2187 745 65.232C747.219 62.2027 750.12 59.8773 753.704 58.256C757.331 56.6347 761.192 55.824 765.288 55.824C770.408 55.824 775.101 56.912 779.368 59.088C783.635 61.264 786.899 64.2507 789.16 68.048L778.6 74.32C777.96 73.04 777 71.888 775.72 70.864C774.44 69.84 772.989 69.0293 771.368 68.432C769.747 67.792 768.061 67.4293 766.312 67.344C764.136 67.2587 762.109 67.5147 760.232 68.112C758.397 68.6667 756.925 69.5627 755.816 70.8C754.707 72.0373 754.152 73.616 754.152 75.536C754.152 77.4133 754.813 78.8213 756.136 79.76C757.459 80.656 759.123 81.3813 761.128 81.936C763.176 82.4907 765.267 83.1093 767.4 83.792C771.197 84.9867 774.76 86.4587 778.088 88.208C781.416 89.9147 784.104 92.0267 786.152 94.544C788.2 97.0613 789.181 100.133 789.096 103.76C789.096 107.771 787.88 111.291 785.448 114.32C783.059 117.349 779.944 119.653 776.104 121.232C772.264 122.811 768.189 123.472 763.88 123.216ZM857.655 81.872V122H844.343V85.136C844.343 82.2773 843.639 79.6747 842.231 77.328C840.866 74.9813 839.01 73.1253 836.663 71.76C834.359 70.352 831.756 69.648 828.855 69.648C826.039 69.648 823.458 70.352 821.111 71.76C818.764 73.1253 816.887 74.9813 815.479 77.328C814.071 79.6747 813.367 82.2773 813.367 85.136V122H800.055V26H813.367V64.784C815.586 62.1387 818.316 60.048 821.559 58.512C824.802 56.976 828.3 56.208 832.055 56.208C836.791 56.208 841.1 57.36 844.983 59.664C848.866 61.968 851.938 65.0613 854.199 68.944C856.503 72.8267 857.655 77.136 857.655 81.872Z" fill="url(#paint2_linear_18267_13293)"/>
<defs>
<linearGradient id="paint0_linear_18267_13293" x1="67.7857" y1="7" x2="67.7857" y2="153" gradientUnits="userSpaceOnUse">
<stop stop-color="#4CAF50"/>
<stop offset="1" stop-color="#204921"/>
</linearGradient>
<linearGradient id="paint1_linear_18267_13293" x1="67.7856" y1="40" x2="67.7856" y2="120" gradientUnits="userSpaceOnUse">
<stop stop-color="white"/>
<stop offset="1" stop-color="#999999"/>
</linearGradient>
<linearGradient id="paint2_linear_18267_13293" x1="203" y1="61.5" x2="894.786" y2="61.5" gradientUnits="userSpaceOnUse">
<stop stop-color="#4CAF50"/>
<stop offset="1" stop-color="#204921"/>
</linearGradient>
</defs>
</svg>
